<?xml version="1.0" encoding="utf-8"?>
<!-- Generator: Adobe Illustrator 16.0.0, SVG Export Plug-In . SVG Version: 6.00 Build 0)  -->
<!DOCTYPE svg PUBLIC "-//W3C//DTD SVG 1.1//EN" "http://www.w3.org/Graphics/SVG/1.1/DTD/svg11.dtd">
<svg version="1.1" id="Layer_1" xmlns="http://www.w3.org/2000/svg" xmlns:xlink="http://www.w3.org/1999/xlink" x="0px" y="0px"
	 width="612px" height="792px" viewBox="0 0 612 792" enable-background="new 0 0 612 792" xml:space="preserve">
<g>
	<path fill="#FFFFFF" d="M13.804,182.747l286.705-95.468c3.426-1.158,7.003-1.058,10.177,0.051v-0.051l290.483,99.498
		c7.153,2.418,11.486,9.371,10.831,16.575c0.051,0.353,0.051,0.755,0.051,1.159V542.35H612c0,5.845-3.225,11.486-8.816,14.308
		L314.766,703.209c-2.418,1.461-5.289,2.317-8.313,2.317c-3.224,0-6.196-0.957-8.715-2.569L8.665,552.174
		c-5.441-2.871-8.615-8.413-8.615-14.207H0v-339.3C0,190.556,5.995,183.855,13.804,182.747L13.804,182.747z M77.23,430.258
		c0-6.146,4.987-11.185,11.184-11.185c6.146,0,11.184,4.987,11.184,11.185v45.491c0,0.353,0,0.756-0.05,1.108
		c0,1.563,0.201,2.821,0.554,3.778c0.151,0.303,0.302,0.604,0.604,0.807l27.859,12.947c5.592,2.569,8.01,9.219,5.441,14.761
		c-2.569,5.592-9.169,8.011-14.761,5.441l-28.514-13.25c-0.504-0.201-1.007-0.453-1.511-0.806
		c-4.584-2.872-7.758-6.751-9.723-11.537c-1.562-3.829-2.267-8.061-2.217-12.595v-0.705v-45.441H77.23z M290.383,663.007V339.878
		L32.142,222.798v305.496L290.383,663.007L290.383,663.007z M579.858,226.627L322.524,340.029v323.28l257.334-130.783V226.627
		L579.858,226.627z M305.396,119.371L61.16,200.732l245.394,111.286l245.395-108.163L305.396,119.371L305.396,119.371z"/>
</g>
</svg>
