<?xml version="1.0" encoding="utf-8"?>
<!-- Generator: Adobe Illustrator 16.0.0, SVG Export Plug-In . SVG Version: 6.00 Build 0)  -->
<!DOCTYPE svg PUBLIC "-//W3C//DTD SVG 1.1//EN" "http://www.w3.org/Graphics/SVG/1.1/DTD/svg11.dtd">
<svg version="1.1" id="Layer_1" xmlns="http://www.w3.org/2000/svg" xmlns:xlink="http://www.w3.org/1999/xlink" x="0px" y="0px"
	 width="612px" height="792px" viewBox="0 0 612 792" enable-background="new 0 0 612 792" xml:space="preserve">
<title>calculating</title>
<path fill="#FFFFFF" d="M103.327,84.691h405.346c5.869-0.016,11.504,2.303,15.662,6.445c0.334,0.313,0.637,0.658,0.902,1.031
	c3.617,4.065,5.612,9.318,5.607,14.76v126.715c0.005,5.886-2.312,11.537-6.445,15.727l0,0c-4.154,4.148-9.791,6.468-15.662,6.445
	h-405.41c-5.892,0.033-11.553-2.287-15.727-6.445c-0.334-0.313-0.637-0.658-0.902-1.031c-3.617-4.065-5.613-9.318-5.607-14.76
	V106.992c-0.016-5.869,2.303-11.504,6.445-15.662l0,0c4.126-4.151,9.745-6.473,15.598-6.445L103.327,84.691z M540.062,716.783
	c2.138-0.016,4.188,0.846,5.672,2.385l0,0c3.062,3.229,2.926,8.328-0.304,11.39c-1.485,1.408-3.45,2.198-5.497,2.21H488.95
	c-2.136,0.009-4.184-0.853-5.672-2.385c-1.539-1.484-2.4-3.534-2.385-5.672c0.035-4.435,3.622-8.021,8.057-8.057L540.062,716.783z
	 M334.649,691.84L334.649,691.84c-1.441-1.486-2.25-3.473-2.256-5.543c0.023-2.148,0.879-4.204,2.385-5.736l0,0
	c1.507-1.496,3.548-2.331,5.672-2.32c2.141,0,4.197,0.832,5.736,2.32l14.695,14.76l14.76-14.76c1.507-1.496,3.548-2.331,5.672-2.32
	c4.378-0.072,7.985,3.419,8.057,7.797c0.001,0.086,0.001,0.173,0,0.26c0.011,2.124-0.824,4.165-2.32,5.672l-14.76,14.76
	l14.76,14.695c1.488,1.539,2.32,3.596,2.32,5.736c0.011,2.124-0.824,4.164-2.32,5.672c-1.539,1.488-3.596,2.32-5.736,2.32
	c-2.124,0.011-4.165-0.824-5.672-2.32l-14.76-14.76l-14.695,14.76c-1.539,1.488-3.596,2.32-5.736,2.32
	c-2.124,0.011-4.165-0.824-5.672-2.32l0,0c-3.097-3.095-3.099-8.114-0.003-11.212c0.001-0.001,0.002-0.002,0.003-0.003l14.76-14.76
	L334.649,691.84z M597.103,633.059V762.48c0.018,3.873-0.75,7.711-2.256,11.279c-1.509,3.587-3.697,6.848-6.445,9.604l0,0
	c-2.705,2.749-5.924,4.939-9.475,6.445c-3.569,1.506-7.405,2.273-11.279,2.256H304.099c-3.874,0.018-7.71-0.75-11.279-2.256
	c-7.311-2.987-13.132-8.762-16.178-16.049c-1.476-3.578-2.243-7.409-2.256-11.279V503.572c0.02-3.849,0.786-7.657,2.256-11.215
	c1.473-3.606,3.666-6.874,6.445-9.604l0,0c2.702-2.753,5.922-4.943,9.475-6.445c3.569-1.506,7.406-2.273,11.279-2.256h263.936
	c3.874-0.018,7.71,0.75,11.279,2.256c3.587,1.509,6.848,3.697,9.604,6.445c2.762,2.744,4.952,6.008,6.445,9.604
	c1.501,3.548,2.269,7.362,2.256,11.215v129.486H597.103z M575.188,756.68V644.016H446.927v126.07h115.049
	c1.749-0.005,3.479-0.355,5.092-1.031c1.634-0.706,3.12-1.712,4.383-2.965c2.505-2.492,3.919-5.877,3.932-9.41H575.188z
	 M575.188,622.102V509.18c-0.005-1.749-0.355-3.479-1.031-5.092c-0.69-1.626-1.674-3.111-2.9-4.383
	c-1.266-1.233-2.753-2.218-4.383-2.9c-1.612-0.676-3.343-1.026-5.092-1.031H446.927v126.328H575.188z M296.558,509.18v112.922
	h128.326V496.289h-114.92c-1.77,0.005-3.521,0.355-5.156,1.031c-1.622,0.663-3.091,1.65-4.318,2.9
	C298.092,502.602,296.687,505.804,296.558,509.18z M296.558,643.758V756.68c0.084,5.387,3.31,10.226,8.25,12.375
	c1.636,0.676,3.387,1.026,5.156,1.031h114.92v-126.07L296.558,643.758z M352.89,529.676c-0.009-2.136,0.853-4.184,2.385-5.672
	c3.092-3.15,8.151-3.198,11.302-0.106c0.036,0.035,0.071,0.07,0.106,0.106c1.484,1.515,2.317,3.551,2.32,5.672v17.531h17.531
	c2.12,0.01,4.153,0.842,5.672,2.32c3.15,3.092,3.198,8.152,0.106,11.302c-0.035,0.036-0.07,0.071-0.106,0.106
	c-1.519,1.479-3.552,2.311-5.672,2.32h-17.531v17.531c0,4.449-3.607,8.057-8.057,8.057c-2.124,0.011-4.165-0.824-5.672-2.32
	c-1.532-1.488-2.394-3.536-2.385-5.672v-17.338h-17.467c-4.432,0.397-8.347-2.873-8.744-7.305s2.872-8.347,7.304-8.744
	c0.479-0.043,0.961-0.043,1.44,0h17.467v-17.531V529.676z M539.804,547.207c4.432-0.397,8.347,2.873,8.744,7.305
	s-2.872,8.347-7.304,8.744c-0.479,0.043-0.961,0.043-1.44,0H488.95c-2.121-0.003-4.157-0.836-5.672-2.32
	c-3.15-3.092-3.197-8.152-0.106-11.303c0.035-0.035,0.071-0.07,0.106-0.105c1.515-1.484,3.551-2.317,5.672-2.32H539.804z
	 M539.804,681.334c4.521,0.166,8.148,3.793,8.314,8.314c-0.035,4.435-3.622,8.021-8.057,8.057H488.95
	c-2.136,0.009-4.184-0.853-5.672-2.385c-1.539-1.484-2.4-3.534-2.385-5.672c0.006-2.133,0.865-4.175,2.385-5.672
	c1.488-1.532,3.536-2.394,5.672-2.385L539.804,681.334z M456.015,130.904h14.631v78.762H456.53v-78.504L456.015,130.904z
	 M505.837,109.57H106.228v121.172h399.609V109.57z M430.362,328.711h71.221c6.133,0.036,11.086,5.017,11.086,11.15v59.748
	c0,6.133-4.953,11.115-11.086,11.15h-71.221c-6.133,0-11.115-4.953-11.15-11.086v-59.877
	C419.282,333.679,424.243,328.746,430.362,328.711z M269.616,328.711h71.479c6.144,0.035,11.115,5.007,11.15,11.15v59.748
	c0.106,6.192-4.827,11.3-11.02,11.406c-0.044,0.001-0.087,0.002-0.131,0.002h-71.479c-6.133,0-11.115-4.953-11.15-11.086v-60.135
	C258.536,333.679,263.498,328.746,269.616,328.711z M111.899,328.711h70.898c6.133,0.036,11.086,5.017,11.086,11.15v59.748
	c0,6.133-4.953,11.115-11.086,11.15h-70.898c-6.133,0-11.115-4.953-11.15-11.086v-59.877
	C100.819,333.679,105.781,328.746,111.899,328.711z M111.899,614.432h70.898c6.11-0.145,11.198,4.655,11.408,10.764v60.135
	c-0.035,6.108-4.978,11.051-11.086,11.086h-70.898c-6.133,0-11.115-4.953-11.15-11.086v-60.135
	c0.07-6.118,5.032-11.051,11.15-11.086L111.899,614.432z M111.899,471.539h70.898c6.133,0.035,11.086,5.018,11.086,11.15v60.135
	c-0.035,6.108-4.978,11.051-11.086,11.086h-70.898c-6.133,0-11.115-4.953-11.15-11.086v-60.199
	c0.035-6.144,5.007-11.115,11.15-11.15V471.539z M50.476,0h511.049c11.776-0.03,23.085,4.604,31.453,12.891l0,0
	c8.276,8.348,12.911,19.633,12.891,31.389v375.826h-29.713V44.537c0.021-3.869-1.512-7.584-4.254-10.313l0,0
	c-2.725-2.749-6.442-4.282-10.313-4.254H50.476c-3.869-0.021-7.584,1.512-10.313,4.254l0,0c-2.742,2.729-4.275,6.444-4.254,10.313
	v689.068c-0.007,3.866,1.524,7.576,4.254,10.313l0,0c2.749,2.713,6.451,4.239,10.313,4.254h168.674v29.906H50.476
	c-11.757,0.027-23.044-4.608-31.389-12.891h-0.258c-8.276-8.348-12.911-19.634-12.891-31.389V44.537
	c-0.096-11.846,4.545-23.239,12.891-31.646l0,0C27.24,4.551,38.631-0.089,50.476,0z"/>
</svg>
