<?xml version="1.0" encoding="utf-8"?>
<!-- Generator: Adobe Illustrator 16.0.0, SVG Export Plug-In . SVG Version: 6.00 Build 0)  -->
<!DOCTYPE svg PUBLIC "-//W3C//DTD SVG 1.1//EN" "http://www.w3.org/Graphics/SVG/1.1/DTD/svg11.dtd">
<svg version="1.1" id="Layer_1" xmlns="http://www.w3.org/2000/svg" xmlns:xlink="http://www.w3.org/1999/xlink" x="0px" y="0px"
	 width="612px" height="792px" viewBox="0 0 612 792" enable-background="new 0 0 612 792" xml:space="preserve">
<g>
	<path fill="#FFFFFF" d="M50.731,573.482C32.205,618.458,7.168,661.163,0,706.14l25.896-2.222
		c40.887-118.927,77.737-198.885,157.644-298.883c59.968-74.909,125.035-134.524,208.476-181.873
		c44.421-25.239,101.31-52.851,152.495-59.817c13.982-1.918,28.167-2.474,42.704-1.211
		c-158.502,36.294-283.991,120.34-384.241,246.334c-40.938,51.388-76.525,108.479-109.235,168.648l60.271,11.005l-25.088-12.469
		l89.75-14.285c-33.316-11.762-66.228-7.824-76.778-20.494c92.375-4.189,168.295-24.129,221.601-62.846
		c-19.838-2.776-42.705-5.25-54.618-10.954c89.297-30.186,140.936-84.45,206.457-132.606
		c-85.157,17.87-163.954,14.942-186.771-1.262c150.274,11.156,247.345-30.388,280.609-135.131
		c2.878-11.307,3.686-22.715,1.868-34.224c-11.66-74.86-144.166-100.149-187.275-38.768c-8.631,12.266-20.797,23.523-30.842,37.758
		l41.039-76.979c-110.447,37.303-119.533,78.443-176.674,202.368c4.543-37.707,14.992-71.881,28.571-104.137
		C147.851,237.347,101.865,371.417,94.496,485.447c-3.988-39.776,3.382-89.75,17.617-145.882
		c-40.282,40.382-67.691,87.781-57.898,155.423l-18.425-8.229l9.692,36.294L17.92,509.98L50.731,573.482L50.731,573.482z"/>
</g>
</svg>
