<?xml version="1.0" encoding="utf-8"?>
<!-- Generator: Adobe Illustrator 16.0.0, SVG Export Plug-In . SVG Version: 6.00 Build 0)  -->
<!DOCTYPE svg PUBLIC "-//W3C//DTD SVG 1.1//EN" "http://www.w3.org/Graphics/SVG/1.1/DTD/svg11.dtd">
<svg version="1.1" id="Layer_1" xmlns="http://www.w3.org/2000/svg" xmlns:xlink="http://www.w3.org/1999/xlink" x="0px" y="0px"
	 width="612px" height="792px" viewBox="0 0 612 792" enable-background="new 0 0 612 792" xml:space="preserve">
<g>
	<path fill="#FFFFFF" d="M209.334,132.807c16.553,16.553,22.754,40.657,19.403,66.161c-3.5,26.604-17.303,54.709-40.557,77.963
		s-51.358,37.056-77.963,40.557c-25.504,3.351-49.608-2.851-66.161-19.403s-22.753-40.606-19.403-66.161
		c3.501-26.604,17.303-54.709,40.557-77.963c23.254-23.254,51.358-37.056,77.963-40.557
		C168.678,110.003,192.782,116.254,209.334,132.807L209.334,132.807z M88.614,157.861c-5.5,3.551-7.051,10.902-3.5,16.403
		c3.551,5.501,10.902,7.051,16.403,3.5c7.601-4.951,14.752-7.851,21.454-9.301c6.501-1.4,12.502-1.45,18.003-0.6
		c11.302,1.75,20.303,6.501,26.654,13.052c5.501,5.651,9.051,12.752,10.302,20.303c1.25,7.701,0.2,15.953-3.451,23.954
		c-4.701,10.252-13.702,20.054-27.654,27.805c-5.401,3-10.702,5.451-15.853,7.201c-4.75,1.601-9.301,2.55-13.602,2.701
		c-7.551,0.25-15.402-2.801-21.954-7.651c-4.801-3.601-8.751-8.151-11.052-13.002c-2.05-4.3-2.9-8.851-1.85-13.152
		c0.95-4,3.601-8.151,8.401-12.102c5.301-4.351,11.952-7.301,18.303-8.201c3.801-0.55,7.301-0.35,10.002,0.75
		c2,0.8,3.65,2.3,4.601,4.551c1.3,2.95,1.75,7.151,1,12.902c-0.8,6.501,3.801,12.402,10.252,13.252
		c6.451,0.85,12.402-3.801,13.252-10.252c1.3-10.251,0.15-18.653-2.8-25.354c-3.651-8.351-9.802-13.902-17.353-17.002
		c-6.801-2.801-14.603-3.451-22.354-2.351c-10.502,1.5-21.404,6.351-30.005,13.402c-9.102,7.501-14.252,16.052-16.403,24.904
		c-2.4,9.952-0.8,19.903,3.5,28.855c4.051,8.401,10.502,15.952,18.253,21.753c10.552,7.951,23.804,12.802,36.906,12.402
		c6.801-0.2,13.652-1.6,20.503-3.9c6.451-2.201,13.052-5.251,19.753-8.952c18.653-10.352,31.005-24.054,37.656-38.556
		c5.701-12.402,7.352-25.454,5.301-37.706c-2.05-12.352-7.751-23.804-16.703-33.006c-9.751-10.051-23.354-17.353-40.057-19.953
		c-8.301-1.3-17.203-1.3-26.654,0.8C108.718,147.209,98.916,151.21,88.614,157.861L88.614,157.861z M485.88,502.317
		c2.5,6.051,9.451,8.951,15.502,6.401c6.051-2.501,8.951-9.452,6.401-15.503c-3.101-7.352-11.152-17.553-20.653-29.655
		c-16.453-20.853-37.906-48.008-38.307-65.51c-0.149-6.552-5.551-11.752-12.102-11.603c-6.552,0.15-11.752,5.551-11.603,12.103
		c0.601,25.454,24.805,56.159,43.407,79.713C476.928,488.865,483.979,497.816,485.88,502.317L485.88,502.317z M404.616,586.531
		c-5.501-3.551-12.853-2-16.402,3.5c-3.551,5.501-2.001,12.853,3.5,16.403c29.405,19.053,44.957,39.706,57.81,56.759
		c4.251,5.651,8.251,10.952,12.402,15.803c-3.251,0.351-6.501,0.55-9.702,0.55c-15.103-0.1-30.005-4.9-43.407-16.652
		L270.044,524.121c7.451,0.95,14.703,2.55,21.804,4.7c16.053,4.852,31.255,12.603,45.907,22.604c5.401,3.7,12.803,2.3,16.503-3.101
		c3.701-5.401,2.301-12.803-3.101-16.503c-16.603-11.352-34.005-20.203-52.408-25.754c-16.903-5.102-34.656-7.502-53.359-6.602
		L87.665,341.741c8.351,0.65,16.902,0.4,25.604-0.75c3.65-0.5,7.301-1.101,10.952-1.9c52.659,54.109,110.518,96.416,163.877,129.121
		c54.659,33.556,104.617,57.06,139.223,72.912c5.95,2.7,13.002,0.1,15.702-5.852c2.7-5.95,0.1-13.002-5.851-15.702
		c-33.956-15.553-82.964-38.656-136.723-71.612c-49.058-30.104-101.967-68.461-150.775-116.869
		c14.803-6.151,29.305-14.802,42.757-25.904c11.802,14.752,25.304,27.004,37.656,38.207c12.102,10.952,23.004,20.853,28.805,30.255
		c3.451,5.551,10.752,7.301,16.303,3.851c5.551-3.451,7.301-10.752,3.851-16.303c-7.551-12.252-19.653-23.204-33.105-35.356
		c-12.002-10.852-25.204-22.804-36.206-37.006c15.052-16.253,26.354-34.406,33.655-53.009c25.554,14.002,42.057,39.957,59.36,67.111
		c20.653,32.456,42.307,66.561,82.013,88.515c5.751,3.15,12.952,1.05,16.103-4.701s1.051-12.952-4.7-16.103
		c-34.306-18.953-54.31-50.458-73.362-80.413c-19.953-31.405-38.957-61.31-72.412-77.513c0.75-3.601,1.4-7.201,1.85-10.752
		c1.15-8.702,1.4-17.303,0.75-25.654l322.203,322.502c6.2,8.252,9.751,16.604,11.502,25.104c1.899,9.001,1.85,18.453,1,28.255
		c-0.95,11.151-4.101,22.554-9.002,33.755c-5.501-3-10.752-7.201-15.803-12.401c-8.351-8.651-16.103-20.153-23.403-33.855
		c-3.101-5.802-10.302-8.002-16.053-4.951c-5.801,3.101-8.001,10.302-4.951,16.053c8.252,15.553,17.303,28.805,27.305,39.156
		c6.751,7.001,13.902,12.652,21.554,16.853c-1.101,1.7-2.25,3.451-3.45,5.101c-7.052,10.052-15.303,19.504-24.354,27.905l-1.7-2.15
		c-15.753-19.753-40.557-50.908-66.561-62.261c-6.001-2.6-13.003,0.15-15.603,6.151c-2.601,6.001,0.149,13.002,6.15,15.603
		c20.554,8.951,43.157,37.307,57.46,55.259l1.85,2.301c-3.5,2.45-7.051,4.701-10.701,6.801c-7.052,4.101-14.402,7.701-21.954,10.652
		c-6.801-5.852-13.002-14.053-20.003-23.354C454.524,630.389,437.571,607.935,404.616,586.531L404.616,586.531z M544.889,666.544
		c0.4-0.25,0.75-0.55,1.101-0.85l0.3-0.3c14.003-11.452,26.654-25.104,37.057-39.907c4.05-5.801,7.801-11.802,11.102-17.953
		c0.35-0.5,0.6-1.05,0.85-1.6c8.852-16.753,14.603-34.456,16.053-51.809c1-11.702,0.95-23.354-1.5-35.056
		c-2.5-11.902-7.401-23.604-16.203-35.056c-0.25-0.351-0.5-0.65-0.8-0.95l-0.2-0.2v-0.05l-0.199-0.2l0,0l-368.511-368.91
		c-0.5-0.5-1-0.9-1.55-1.3C200.633,93,171.028,85.799,140.123,89.85c-31.655,4.15-64.761,20.253-91.765,47.257
		C21.354,164.112,5.251,197.217,1.1,228.873c-4.051,30.905,3.201,60.56,22.554,82.313c0.4,0.5,0.8,1.05,1.25,1.5l368.11,368.11
		c0.75,0.75,1.55,1.35,2.4,1.85c17.503,14.503,36.905,20.454,56.559,20.604c24.454,0.2,48.908-8.701,70.312-21.104
		C530.087,677.596,537.688,672.396,544.889,666.544L544.889,666.544z M321.202,390.149c-6.051-2.5-13.002,0.35-15.502,6.401
		c-2.5,6.051,0.35,13.002,6.4,15.503c4.551,1.9,14.753,9.052,27.155,17.703c16.603,11.602,36.855,25.804,55.459,35.655
		c5.801,3.051,12.952,0.851,16.053-4.95c3.05-5.802,0.85-12.952-4.951-16.053c-17.553-9.302-37.006-22.904-52.959-34.056
		C339.155,400.851,327.903,393,321.202,390.149L321.202,390.149z"/>
</g>
</svg>
